PathFileType	4	(X/Y/Z)	Patient4_TMGait_0pt3_02_left_07.trc.trc
DataRate	CameraRate	NumFrames	NumMarkers	Units	OrigDataRate	OrigDataStartFrame	OrigNumFrames
50.179211469534	50.179211469534	4	33	mm	50.179211469534	1	       141
Frame#	Time	Sacral			L.Shoulder			Chest			R.Shoulder			Neck			R.ASIS			L.ASIS			R.Thigh.Superior			R.Thigh.Lateral			R.Thigh.Inferior			R.Patella			L.Thigh.Superior			L.Thigh.Lateral			L.Thigh.Inferior			L.Patella			L.Shank.Superior			L.Shank.Lateral			L.Shank.Inferior			R.Shank.Superior			R.Shank.Lateral			R.Shank.Inferior			R.Heel			R.Midfoot.Superior			R.Midfoot.Lateral			R.Toe			L.Heel			L.Midfoot.Lateral			L.Midfoot.Superior			L.Toe			L.Elbow			L.Wrist			R.Elbow			R.Wrist			
		X1	Y1	Z1	X2	Y2	Z2	X3	Y3	Z3	X4	Y4	Z4	X5	Y5	Z5	X6	Y6	Z6	X7	Y7	Z7	X8	Y8	Z8	X9	Y9	Z9	X10	Y10	Z10	X11	Y11	Z11	X12	Y12	Z12	X13	Y13	Z13	X14	Y14	Z14	X15	Y15	Z15	X16	Y16	Z16	X17	Y17	Z17	X18	Y18	Z18	X19	Y19	Z19	X20	Y20	Z20	X21	Y21	Z21	X22	Y22	Z22	X23	Y23	Z23	X24	Y24	Z24	X25	Y25	Z25	X26	Y26	Z26	X27	Y27	Z27	X28	Y28	Z28	X29	Y29	Z29	X30	Y30	Z30	X31	Y31	Z31	X32	Y32	Z32	X33	Y33	Z33	

1	13.500000000000	696.394595389428	992.089471235407	585.104670151862	900.029571520299	1426.270045366194	422.915445543191	979.935668663849	1353.900182971140	594.613656507670	875.583253075023	1424.132169224222	757.944005323371	864.873683359415	1485.410146875282	579.445603738335	922.184858018791	933.550911180385	716.590218540362	921.823248405683	951.626114228917	442.967978424787	979.510921797323	737.955207809028	677.832424675088	901.242858983820	618.448392996395	722.212235271040	986.851047918991	575.741174668488	644.177435000236	991.422372363312	480.332680362886	645.684558311158	996.063712776224	756.750973224588	477.151132449235	947.348720000767	632.071135227018	397.945701707338	1040.315498692877	563.213644292297	470.160542277331	1044.917344669073	471.803111665907	459.936946408279	971.676924444615	412.994029407574	444.717796977154	826.580696002210	386.510788861628	394.480634985704	803.551488640534	254.610830360908	438.752269510267	949.129424817023	393.136520148023	643.932268055799	862.182337099310	294.710657770460	694.335130615608	896.042439114327	200.295117192022	627.184410705835	748.241159060056	44.412609054874	578.914572885220	917.490874109183	96.975226986639	630.007602788573	825.442234980881	37.191455210818	659.988498696029	1033.879774961027	42.155222240454	667.141866434183	608.796633298737	203.070363975936	476.646594013827	660.526403355346	162.465968524401	390.141483958280	766.876117554265	157.759213344092	408.967322270156	832.681601385423	43.107250492413	365.489123036569	931.734242236758	1075.110322981038	300.528224340515	1101.300142142396	873.511330393934	313.150547595571	812.005016903441	1072.688310582757	859.477850436472	890.227651768686	822.715707957342	886.394257172436	
2	13.519928571429	694.255009581465	990.086666247352	588.810272642811	896.623680663384	1423.100959684283	422.995981483946	978.814136290110	1351.299966954977	593.866680270809	877.043912790513	1422.372422900266	758.445937233615	863.853775425174	1483.190554539038	579.814488697857	921.506521585038	931.507070632868	717.902608081975	919.075337313140	949.988617941230	443.896181793598	979.075196299379	736.448200023200	678.725260591962	901.719772716368	616.481757023866	723.314379053526	987.287369618268	574.347367968552	644.820876692260	992.122713454128	478.307466889283	646.270736742173	994.345112432582	757.109597142148	476.618271328824	946.882633118650	632.158062973257	397.317522350748	1041.999874273866	565.006369229111	468.118769032132	1048.559089244071	474.125190234628	457.470924712991	977.108455584916	413.722055460679	442.740391265492	832.537846885274	382.417923244115	394.344326241228	815.132036790600	249.661152017622	437.942981400789	948.387275540025	391.241471726553	644.190485905573	860.149623670669	293.949981581642	694.527187298580	892.182437947977	199.327685467203	627.170243236944	742.229622761799	44.633187534794	578.905887156117	911.604981342501	96.882829693784	629.947862977669	819.429864922160	37.297716575934	659.956995823531	1027.872915521329	41.801000471562	667.270025468968	623.258051278682	189.566672532209	477.984262115421	675.520960591733	152.555785074616	390.371375226373	781.800500041000	152.827564724205	408.002819374975	852.249269959815	42.458750245375	362.153576683622	915.846288716765	1070.303207580301	304.018255760960	1061.741051886854	856.294068311724	314.703018266941	826.274923453135	1070.078128078390	863.239963215955	920.676933062945	827.457846354431	888.572069063312	
3	13.539857142857	692.078641825669	988.136318873764	592.568221168771	893.009766421232	1420.005815840266	423.062142352691	977.621991327834	1348.748512513459	593.006971942397	878.581483599046	1420.652259220911	758.907467672543	862.785014394199	1481.017785869748	580.165679316101	920.827080382611	929.480201642619	719.092080827528	915.965745427762	948.342356790685	444.811032592634	978.493167098895	734.904056707342	679.410279502270	902.093437949174	614.522600134923	724.290547222733	987.497541461562	572.921534584545	645.235268533856	992.562230065800	476.274036168808	646.620240038615	992.499736987289	757.561538760891	476.082976359318	946.328903272900	632.343578435105	396.670779254781	1043.509157659530	566.898257873963	466.114908370174	1052.078500800787	476.614848541268	455.036818098203	982.608522077628	414.564621829087	440.703392519942	838.793721320234	378.072477523275	394.020301636351	827.355515045226	244.522702778825	436.897629771337	947.414953943662	389.339223515576	644.289236756899	857.951741851323	293.166484267998	694.657987211645	888.130252621784	198.341292428447	627.087581705671	736.045454729703	44.835779745059	578.908231592086	905.529564986534	96.786069925663	629.877650096636	813.242067116519	37.394759776926	659.938472375354	1021.686607756746	41.460841277349	667.393427385752	638.718564693572	175.485799738353	478.921212045054	691.548776973375	142.174639354550	390.239494034835	797.650089907662	147.621614865888	406.747482463287	872.888513856919	41.757395086906	358.584824198779	899.285292360606	1065.804624539357	307.358602902161	1021.298512898107	839.970245912780	316.383784636675	841.091409191283	1067.682852859024	866.981758118237	952.171066045537	833.175079140313	890.434681707957	
4	13.559785714286	689.916551876295	986.364556664178	596.270729127917	889.201752656325	1417.158061037572	423.100684831645	976.364739579925	1346.386645758122	591.994124444767	880.193569997094	1419.079420983097	759.278715388253	861.677236464147	1479.016368759484	580.472312076375	920.162226306312	927.571639014961	720.051779287299	912.474178567960	946.784681189715	445.648394759535	977.695905414679	733.375270911708	679.775784126265	902.249374235624	612.662584421067	725.057868478900	987.316382136828	571.509271017766	645.319971426203	992.540182113171	474.315832650198	646.633461196183	990.508343748008	758.151738409992	475.552283347978	945.627805746196	632.683009939649	396.005162032696	1044.679767539760	568.881506106880	464.216025822347	1055.270952508271	479.290683855786	452.718544380767	988.002772482627	415.578140482507	438.647336814787	845.299111885950	373.530326819932	393.408685466446	840.136024631903	239.332995884795	435.546780249416	946.080398432194	387.510300926421	644.168993504320	855.534478806979	292.387941864057	694.702503200419	883.898031302075	197.373441356235	626.916584829543	729.794816451815	45.004412072619	578.925139345280	899.365395481970	96.688396001099	629.798901947382	806.987336839227	37.475420219392	659.938371728384	1015.428942971326	41.153462867834	667.505247994943	655.169706847421	161.100208928186	479.227108889000	708.620579464946	131.506078666637	389.589183382531	814.375041210595	142.246962484520	405.129119929404	894.462609375780	41.062404107178	354.866649972849	882.260165954022	1061.972867947450	310.379549269242	980.935922807698	825.544276759912	318.190929957858	856.248766342595	1065.744776703683	870.547369559472	984.136813584419	840.265432908026	891.732466435632	
